<?xml version="1.0" standalone="no"?>
<!DOCTYPE svg PUBLIC "-//W3C//DTD SVG 20010904//EN"
 "http://www.w3.org/TR/2001/REC-SVG-20010904/DTD/svg10.dtd">
<svg version="1.0" xmlns="http://www.w3.org/2000/svg"
 width="220.000000pt" height="220.000000pt" viewBox="0 0 220.000000 220.000000"
 preserveAspectRatio="xMidYMid meet">
<metadata>
Created by potrace 1.11, written by Peter Selinger 2001-2013
</metadata>
<g transform="translate(0.000000,220.000000) scale(0.100000,-0.100000)"
fill="#000000" stroke="none">
<path d="M1959 2026 c-2 -2 -28 -7 -58 -11 -30 -4 -62 -8 -72 -10 -9 -2 -39
-6 -66 -10 -26 -4 -59 -8 -73 -10 -14 -2 -47 -7 -75 -11 -27 -3 -57 -8 -66 -9
-9 -2 -40 -6 -69 -10 -29 -4 -61 -8 -70 -10 -9 -2 -41 -6 -70 -10 -29 -4 -61
-8 -70 -10 -9 -2 -41 -6 -71 -10 -137 -17 -134 -16 -134 -60 0 -45 -8 -43 110
-30 39 4 86 8 105 10 36 3 128 13 190 20 19 2 62 7 95 10 62 6 114 12 175 20
19 2 67 7 105 10 117 10 139 15 157 36 20 24 11 66 -18 86 -11 7 -22 11 -25 9z"/>
<path d="M968 1989 c-13 -7 -18 -23 -18 -59 0 -47 -6 -55 -32 -51 -5 0 -8 -17
-8 -39 0 -33 3 -40 20 -40 18 0 20 -7 20 -60 0 -53 -2 -60 -20 -60 -17 0 -20
-7 -20 -40 0 -33 3 -40 20 -40 15 0 20 -7 20 -24 0 -35 25 -57 53 -47 22 8 22
12 25 217 3 245 -5 276 -60 243z"/>
<path d="M795 1957 c-4 -13 -6 -31 -5 -38 5 -35 -1 -59 -15 -59 -15 0 -16 -3
-19 -50 -1 -19 4 -25 20 -24 15 0 20 -5 18 -20 -1 -12 -3 -37 -3 -58 -1 -30
-4 -35 -19 -31 -15 3 -18 -2 -18 -31 0 -26 5 -38 18 -42 10 -3 18 -14 18 -25
0 -30 1 -33 21 -47 14 -10 24 -10 39 -2 20 11 20 18 18 228 l-3 217 -32 3
c-27 3 -33 -1 -38 -21z"/>
<path d="M658 1939 c-13 -7 -18 -23 -18 -55 0 -37 -4 -47 -20 -51 -27 -7 -29
-72 -2 -69 13 1 18 -8 20 -41 3 -41 -2 -49 -30 -44 -5 0 -8 -15 -8 -34 0 -28
4 -35 20 -35 16 0 20 -7 20 -35 0 -43 32 -66 59 -41 15 14 17 38 16 206 0 157
-3 193 -15 200 -18 12 -21 12 -42 -1z"/>
<path d="M492 1873 c-4 -10 -7 -28 -6 -40 1 -18 -4 -23 -22 -24 -13 -1 -27 -2
-31 -3 -5 -2 -35 -6 -68 -11 -33 -4 -67 -9 -75 -11 -8 -1 -20 -3 -26 -3 -7 -1
-9 -12 -6 -27 5 -29 -10 -28 188 -8 40 4 41 3 40 -27 -1 -16 -6 -33 -13 -37
-6 -4 -58 -6 -115 -5 -105 2 -105 2 -104 -22 1 -13 4 -26 7 -29 2 -3 54 -7
114 -9 l110 -4 1 -254 c1 -140 2 -262 3 -271 1 -14 10 -18 36 -18 26 0 35 4
36 18 0 9 0 187 1 395 0 284 -3 381 -12 392 -17 20 -47 19 -58 -2z"/>
<path d="M1063 1634 l0 -44 76 -1 c42 -1 117 -2 166 -4 128 -5 472 -16 588
-20 108 -3 127 5 127 53 0 60 23 57 -488 58 l-469 1 0 -43z"/>
<path d="M0 1315 c0 -8 4 -15 8 -15 5 0 9 7 9 15 0 8 -4 15 -9 15 -4 0 -8 -7
-8 -15z"/>
<path d="M167 1022 c-25 -5 -30 -40 -24 -165 8 -186 60 -306 192 -442 100
-104 224 -180 354 -219 81 -24 785 -18 847 6 135 55 262 137 340 220 73 77
145 205 171 303 11 40 14 270 4 285 -9 13 -125 15 -939 15 -510 0 -936 -1
-945 -3z"/>
<path d="M0 964 c0 -31 2 -35 15 -24 20 16 20 60 0 60 -11 0 -15 -11 -15 -36z"/>
</g>
</svg>
